<svg width="150" height="90" viewBox="0 0 150 90" fill="none" xmlns="http://www.w3.org/2000/svg">
<g clip-path="url(#clip0_514_119)">
<path d="M108.308 57.9434C124.352 57.9434 137.358 44.9723 137.358 28.9717C137.358 12.9711 124.352 0 108.308 0C92.2647 0 79.2588 12.9711 79.2588 28.9717C79.2588 44.9723 92.2647 57.9434 108.308 57.9434Z" fill="url(#paint0_linear_514_119)"/>
<path d="M103.108 90C106.309 90.0978 109.497 89.5534 112.483 88.3993C115.469 87.2451 118.192 85.5047 120.491 83.2811C122.79 81.0576 124.618 78.3963 125.866 75.4551C127.114 72.5138 127.757 69.3525 127.757 66.1587C127.757 62.9649 127.114 59.8036 125.866 56.8624C124.618 53.9211 122.79 51.2598 120.491 49.0363C118.192 46.8128 115.469 45.0723 112.483 43.9182C109.497 42.764 106.309 42.2197 103.108 42.3174H102.884C101.992 33.9975 98.3711 26.2039 92.5839 20.1458C86.7967 14.0876 79.1665 10.1036 70.8772 8.81198C62.5878 7.52033 54.1028 8.99319 46.7385 13.0021C39.3743 17.0109 33.5425 23.3316 30.148 30.9836H29.5876C21.7405 30.9836 14.2148 34.0925 8.66604 39.6264C3.1173 45.1602 0 52.6657 0 60.4918C0 68.3179 3.1173 75.8234 8.66604 81.3572C14.2148 86.8911 21.7405 90 29.5876 90" fill="white"/>
<path d="M134.982 90.0001C138.965 90.0001 142.785 88.422 145.601 85.6132C148.418 82.8043 150 78.9947 150 75.0224C150 71.0501 148.418 67.2405 145.601 64.4316C142.785 61.6228 138.965 60.0447 134.982 60.0447H134.825C134.232 54.843 131.943 49.9794 128.31 46.2011C124.676 42.4229 119.899 39.9392 114.713 39.1317C109.526 38.3242 104.217 39.2377 99.6021 41.7316C94.9868 44.2255 91.3204 48.1619 89.1662 52.9359H88.8299C83.9017 52.9359 79.1752 54.8884 75.6905 58.3639C72.2057 61.8393 70.248 66.553 70.248 71.468C70.248 76.383 72.2057 81.0967 75.6905 84.5721C79.1752 88.0475 83.9017 90.0001 88.8299 90.0001" fill="url(#paint1_linear_514_119)"/>
</g>
<defs>
<linearGradient id="paint0_linear_514_119" x1="87.7764" y1="49.4709" x2="128.752" y2="8.38472" gradientUnits="userSpaceOnUse">
<stop stop-color="#FDB728"/>
<stop offset="1" stop-color="#FFCD23"/>
</linearGradient>
<linearGradient id="paint1_linear_514_119" x1="86.8574" y1="95.7005" x2="132.282" y2="50.1538" gradientUnits="userSpaceOnUse">
<stop stop-color="#D0E8F8"/>
<stop offset="1" stop-color="#E1EEF9"/>
</linearGradient>
<clipPath id="clip0_514_119">
<rect width="150" height="90" fill="white"/>
</clipPath>
</defs>
</svg>
