<svg width="150" height="146" viewBox="0 0 150 146" fill="none" xmlns="http://www.w3.org/2000/svg">
<g clip-path="url(#clip0_514_124)">
<path d="M29.4531 109.433C31.9289 109.433 33.936 107.421 33.936 104.94C33.936 102.459 31.9289 100.448 29.4531 100.448C26.9772 100.448 24.9701 102.459 24.9701 104.94C24.9701 107.421 26.9772 109.433 29.4531 109.433Z" fill="url(#paint0_linear_514_124)"/>
<path d="M51.868 109.433C54.3438 109.433 56.3509 107.421 56.3509 104.94C56.3509 102.459 54.3438 100.448 51.868 100.448C49.3921 100.448 47.385 102.459 47.385 104.94C47.385 107.421 49.3921 109.433 51.868 109.433Z" fill="url(#paint1_linear_514_124)"/>
<path d="M74.2828 109.433C76.7586 109.433 78.7657 107.421 78.7657 104.94C78.7657 102.459 76.7586 100.448 74.2828 100.448C71.8069 100.448 69.7998 102.459 69.7998 104.94C69.7998 107.421 71.8069 109.433 74.2828 109.433Z" fill="url(#paint2_linear_514_124)"/>
<path d="M96.6976 109.433C99.1734 109.433 101.181 107.421 101.181 104.94C101.181 102.459 99.1734 100.448 96.6976 100.448C94.2217 100.448 92.2146 102.459 92.2146 104.94C92.2146 107.421 94.2217 109.433 96.6976 109.433Z" fill="url(#paint3_linear_514_124)"/>
<path d="M29.4531 146C31.9289 146 33.936 143.989 33.936 141.508C33.936 139.027 31.9289 137.015 29.4531 137.015C26.9772 137.015 24.9701 139.027 24.9701 141.508C24.9701 143.989 26.9772 146 29.4531 146Z" fill="url(#paint4_linear_514_124)"/>
<path d="M51.868 146C54.3438 146 56.3509 143.989 56.3509 141.508C56.3509 139.027 54.3438 137.015 51.868 137.015C49.3921 137.015 47.385 139.027 47.385 141.508C47.385 143.989 49.3921 146 51.868 146Z" fill="url(#paint5_linear_514_124)"/>
<path d="M74.2828 146C76.7586 146 78.7657 143.989 78.7657 141.508C78.7657 139.027 76.7586 137.015 74.2828 137.015C71.8069 137.015 69.7998 139.027 69.7998 141.508C69.7998 143.989 71.8069 146 74.2828 146Z" fill="url(#paint6_linear_514_124)"/>
<path d="M96.6976 146C99.1734 146 101.181 143.989 101.181 141.508C101.181 139.027 99.1734 137.015 96.6976 137.015C94.2217 137.015 92.2146 139.027 92.2146 141.508C92.2146 143.989 94.2217 146 96.6976 146Z" fill="url(#paint7_linear_514_124)"/>
<path d="M18.2457 128.031C20.7215 128.031 22.7286 126.019 22.7286 123.538C22.7286 121.057 20.7215 119.046 18.2457 119.046C15.7698 119.046 13.7627 121.057 13.7627 123.538C13.7627 126.019 15.7698 128.031 18.2457 128.031Z" fill="url(#paint8_linear_514_124)"/>
<path d="M40.6605 128.031C43.1363 128.031 45.1434 126.019 45.1434 123.538C45.1434 121.057 43.1363 119.046 40.6605 119.046C38.1846 119.046 36.1775 121.057 36.1775 123.538C36.1775 126.019 38.1846 128.031 40.6605 128.031Z" fill="url(#paint9_linear_514_124)"/>
<path d="M63.0753 128.031C65.5511 128.031 67.5582 126.019 67.5582 123.538C67.5582 121.057 65.5511 119.046 63.0753 119.046C60.5994 119.046 58.5923 121.057 58.5923 123.538C58.5923 126.019 60.5994 128.031 63.0753 128.031Z" fill="url(#paint10_linear_514_124)"/>
<path d="M85.49 128.031C87.9659 128.031 89.973 126.019 89.973 123.538C89.973 121.057 87.9659 119.046 85.49 119.046C83.0142 119.046 81.0071 121.057 81.0071 123.538C81.0071 126.019 83.0142 128.031 85.49 128.031Z" fill="url(#paint11_linear_514_124)"/>
<path d="M103.108 81.8498C106.309 81.9481 109.497 81.4011 112.483 80.2414C115.469 79.0818 118.192 77.3331 120.491 75.0989C122.79 72.8647 124.617 70.1907 125.866 67.2354C127.114 64.2801 127.757 61.1037 127.757 57.8947C127.757 54.6856 127.114 51.5092 125.866 48.5539C124.617 45.5986 122.79 42.9244 120.491 40.6903C118.192 38.4561 115.469 36.7074 112.483 35.5477C109.497 34.3881 106.309 33.8411 103.108 33.9393H102.884C101.992 25.5796 98.3711 17.7487 92.584 11.6616C86.7968 5.57454 79.1666 1.57159 70.8773 0.273762C62.5879 -1.02406 54.1029 0.455901 46.7386 4.48393C39.3744 8.51196 33.5426 14.8628 30.1481 22.5513H29.5877C25.6352 22.4423 21.7007 23.1283 18.0172 24.5687C14.3337 26.0091 10.9759 28.1747 8.14175 30.9377C5.30761 33.7006 3.05487 37.0048 1.51662 40.6549C-0.0216192 44.305 -0.814331 48.2271 -0.814331 52.1893C-0.814331 56.1516 -0.0216192 60.0738 1.51662 63.7239C3.05487 67.374 5.30761 70.6781 8.14175 73.441C10.9759 76.2039 14.3337 78.3696 18.0172 79.81C21.7007 81.2504 25.6352 81.9364 29.5877 81.8274" fill="white"/>
<path d="M134.982 81.8499C137.001 81.9281 139.016 81.597 140.905 80.8765C142.794 80.156 144.518 79.061 145.974 77.6568C147.431 76.2527 148.589 74.5685 149.381 72.705C150.172 70.8415 150.58 68.8371 150.58 66.8119C150.58 64.7866 150.172 62.7822 149.381 60.9187C148.589 59.0552 147.431 57.371 145.974 55.9669C144.518 54.5627 142.794 53.4677 140.905 52.7472C139.016 52.0267 137.001 51.6956 134.982 51.7738H134.825C134.233 46.5473 131.944 41.6604 128.31 37.8641C124.676 34.0678 119.899 31.5722 114.713 30.7608C109.526 29.9495 104.218 30.8673 99.6023 33.3732C94.9869 35.879 91.3204 39.8342 89.1662 44.6311H88.8075C86.3145 44.5443 83.8295 44.9614 81.5008 45.8575C79.1721 46.7537 77.0472 48.1105 75.253 49.8471C73.4587 51.5837 72.0319 53.6646 71.0573 55.9656C70.0827 58.2667 69.5803 60.7408 69.5803 63.2405C69.5803 65.7403 70.0827 68.2144 71.0573 70.5155C72.0319 72.8165 73.4587 74.8974 75.253 76.634C77.0472 78.3706 79.1721 79.7273 81.5008 80.6234C83.8295 81.5195 86.3145 81.9367 88.8075 81.8499" fill="url(#paint12_linear_514_124)"/>
</g>
<defs>
<linearGradient id="paint0_linear_514_124" x1="24.9701" y1="104.94" x2="33.936" y2="104.94" gradientUnits="userSpaceOnUse">
<stop stop-color="#D0E8F8"/>
<stop offset="1" stop-color="#E1EEF9"/>
</linearGradient>
<linearGradient id="paint1_linear_514_124" x1="47.385" y1="104.94" x2="56.3509" y2="104.94" gradientUnits="userSpaceOnUse">
<stop stop-color="#D0E8F8"/>
<stop offset="1" stop-color="#E1EEF9"/>
</linearGradient>
<linearGradient id="paint2_linear_514_124" x1="69.7998" y1="104.94" x2="78.7657" y2="104.94" gradientUnits="userSpaceOnUse">
<stop stop-color="#D0E8F8"/>
<stop offset="1" stop-color="#E1EEF9"/>
</linearGradient>
<linearGradient id="paint3_linear_514_124" x1="92.2146" y1="104.94" x2="101.181" y2="104.94" gradientUnits="userSpaceOnUse">
<stop stop-color="#D0E8F8"/>
<stop offset="1" stop-color="#E1EEF9"/>
</linearGradient>
<linearGradient id="paint4_linear_514_124" x1="24.9701" y1="141.508" x2="33.936" y2="141.508" gradientUnits="userSpaceOnUse">
<stop stop-color="#D0E8F8"/>
<stop offset="1" stop-color="#E1EEF9"/>
</linearGradient>
<linearGradient id="paint5_linear_514_124" x1="47.385" y1="141.508" x2="56.3509" y2="141.508" gradientUnits="userSpaceOnUse">
<stop stop-color="#D0E8F8"/>
<stop offset="1" stop-color="#E1EEF9"/>
</linearGradient>
<linearGradient id="paint6_linear_514_124" x1="69.7998" y1="141.508" x2="78.7657" y2="141.508" gradientUnits="userSpaceOnUse">
<stop stop-color="#D0E8F8"/>
<stop offset="1" stop-color="#E1EEF9"/>
</linearGradient>
<linearGradient id="paint7_linear_514_124" x1="92.2146" y1="141.508" x2="101.181" y2="141.508" gradientUnits="userSpaceOnUse">
<stop stop-color="#D0E8F8"/>
<stop offset="1" stop-color="#E1EEF9"/>
</linearGradient>
<linearGradient id="paint8_linear_514_124" x1="13.7627" y1="123.538" x2="22.7286" y2="123.538" gradientUnits="userSpaceOnUse">
<stop stop-color="#D0E8F8"/>
<stop offset="1" stop-color="#E1EEF9"/>
</linearGradient>
<linearGradient id="paint9_linear_514_124" x1="36.1775" y1="123.538" x2="45.1434" y2="123.538" gradientUnits="userSpaceOnUse">
<stop stop-color="#D0E8F8"/>
<stop offset="1" stop-color="#E1EEF9"/>
</linearGradient>
<linearGradient id="paint10_linear_514_124" x1="58.5923" y1="123.538" x2="67.5582" y2="123.538" gradientUnits="userSpaceOnUse">
<stop stop-color="#D0E8F8"/>
<stop offset="1" stop-color="#E1EEF9"/>
</linearGradient>
<linearGradient id="paint11_linear_514_124" x1="81.0071" y1="123.538" x2="89.973" y2="123.538" gradientUnits="userSpaceOnUse">
<stop stop-color="#D0E8F8"/>
<stop offset="1" stop-color="#E1EEF9"/>
</linearGradient>
<linearGradient id="paint12_linear_514_124" x1="86.8574" y1="87.6" x2="132.499" y2="42.0307" gradientUnits="userSpaceOnUse">
<stop stop-color="#D0E8F8"/>
<stop offset="1" stop-color="#E1EEF9"/>
</linearGradient>
<clipPath id="clip0_514_124">
<rect width="150" height="146" fill="white"/>
</clipPath>
</defs>
</svg>
