<svg width="150" height="124" viewBox="0 0 150 124" fill="none" xmlns="http://www.w3.org/2000/svg">
<g clip-path="url(#clip0_514_140)">
<path d="M103.108 81.9992C106.309 82.0976 109.497 81.5497 112.483 80.3879C115.469 79.2261 118.192 77.4742 120.491 75.236C122.79 72.9977 124.618 70.3187 125.866 67.358C127.114 64.3973 127.757 61.2151 127.757 58.0002C127.757 54.7853 127.114 51.6032 125.866 48.6425C124.618 45.6818 122.79 43.0028 120.491 40.7646C118.192 38.5263 115.469 36.7744 112.483 35.6126C109.497 34.4509 106.309 33.9029 103.108 34.0013H102.862C101.957 25.6362 98.3309 17.8039 92.5441 11.717C86.7573 5.63021 79.1328 1.6285 70.8515 0.331722C62.5702 -0.965051 54.094 0.515404 46.7356 4.5438C39.3771 8.5722 33.5471 14.9238 30.148 22.615H29.5203C21.6732 22.615 14.1475 25.7445 8.59878 31.315C3.05004 36.8854 -0.0672607 44.4406 -0.0672607 52.3184C-0.0672607 60.1962 3.05004 67.7514 8.59878 73.3218C14.1475 78.8923 21.6732 82.0218 29.5203 82.0218" fill="white"/>
<path d="M134.982 81.9993C136.954 81.9993 138.907 81.6093 140.729 80.8516C142.551 80.0939 144.207 78.9834 145.601 77.5834C146.996 76.1834 148.102 74.5213 148.857 72.6921C149.612 70.8629 150 68.9024 150 66.9225C150 64.9426 149.612 62.9822 148.857 61.153C148.102 59.3238 146.996 57.6617 145.601 56.2617C144.207 54.8617 142.551 53.7511 140.729 52.9935C138.907 52.2358 136.954 51.8458 134.982 51.8458H134.87C134.281 46.6082 131.995 41.7097 128.363 37.9034C124.731 34.0972 119.954 31.5938 114.767 30.7783C109.58 29.9628 104.27 30.8802 99.6523 33.3896C95.0351 35.899 91.3667 39.8613 89.2111 44.6675H88.8523C83.9241 44.6675 79.1978 46.6329 75.7131 50.1313C72.2283 53.6298 70.2705 58.3747 70.2705 63.3222C70.2705 68.2697 72.2283 73.0145 75.7131 76.5129C79.1978 80.0113 83.9241 81.9767 88.8523 81.9767" fill="url(#paint0_linear_514_140)"/>
<path d="M46.2194 105.154H23.8046C22.9129 105.154 22.0577 104.799 21.4271 104.166C20.7966 103.533 20.4424 102.674 20.4424 101.779C20.4424 100.884 20.7966 100.025 21.4271 99.3921C22.0577 98.7591 22.9129 98.4035 23.8046 98.4035H46.2194C47.1111 98.4035 47.9664 98.7591 48.5969 99.3921C49.2274 100.025 49.5817 100.884 49.5817 101.779C49.5817 102.674 49.2274 103.533 48.5969 104.166C47.9664 104.799 47.1111 105.154 46.2194 105.154Z" fill="url(#paint1_linear_514_140)"/>
<path d="M94.5233 105.154H60.901C60.0093 105.154 59.1541 104.799 58.5236 104.166C57.893 103.533 57.5388 102.674 57.5388 101.779C57.5388 100.884 57.893 100.025 58.5236 99.3921C59.1541 98.7591 60.0093 98.4035 60.901 98.4035H94.5233C95.415 98.4035 96.2702 98.7591 96.9008 99.3921C97.5313 100.025 97.8855 100.884 97.8855 101.779C97.8855 102.674 97.5313 103.533 96.9008 104.166C96.2702 104.799 95.415 105.154 94.5233 105.154V105.154Z" fill="url(#paint2_linear_514_140)"/>
<path d="M68.6343 123.156H23.8046C22.9129 123.156 22.0577 122.801 21.4271 122.168C20.7966 121.535 20.4424 120.676 20.4424 119.781C20.4424 118.886 20.7966 118.027 21.4271 117.394C22.0577 116.761 22.9129 116.406 23.8046 116.406H68.6343C69.526 116.406 70.3812 116.761 71.0117 117.394C71.6423 118.027 71.9965 118.886 71.9965 119.781C71.9965 120.676 71.6423 121.535 71.0117 122.168C70.3812 122.801 69.526 123.156 68.6343 123.156V123.156Z" fill="url(#paint3_linear_514_140)"/>
<path d="M116.938 123.156H83.316C82.4242 123.156 81.569 122.801 80.9385 122.168C80.3079 121.535 79.9537 120.676 79.9537 119.781C79.9537 118.886 80.3079 118.027 80.9385 117.394C81.569 116.761 82.4242 116.406 83.316 116.406H116.938C117.83 116.406 118.685 116.761 119.316 117.394C119.946 118.027 120.3 118.886 120.3 119.781C120.3 120.676 119.946 121.535 119.316 122.168C118.685 122.801 117.83 123.156 116.938 123.156V123.156Z" fill="url(#paint4_linear_514_140)"/>
</g>
<defs>
<linearGradient id="paint0_linear_514_140" x1="86.8575" y1="87.7374" x2="132.582" y2="42.1908" gradientUnits="userSpaceOnUse">
<stop stop-color="#D0E8F8"/>
<stop offset="1" stop-color="#E1EEF9"/>
</linearGradient>
<linearGradient id="paint1_linear_514_140" x1="20.4424" y1="101.779" x2="49.5817" y2="101.779" gradientUnits="userSpaceOnUse">
<stop stop-color="#00AEEF"/>
<stop offset="1" stop-color="#00BDF2"/>
</linearGradient>
<linearGradient id="paint2_linear_514_140" x1="57.4267" y1="101.779" x2="97.7734" y2="101.779" gradientUnits="userSpaceOnUse">
<stop stop-color="#00AEEF"/>
<stop offset="1" stop-color="#00BDF2"/>
</linearGradient>
<linearGradient id="paint3_linear_514_140" x1="20.4424" y1="119.781" x2="71.9965" y2="119.781" gradientUnits="userSpaceOnUse">
<stop stop-color="#00AEEF"/>
<stop offset="1" stop-color="#00BDF2"/>
</linearGradient>
<linearGradient id="paint4_linear_514_140" x1="79.8417" y1="119.781" x2="120.188" y2="119.781" gradientUnits="userSpaceOnUse">
<stop stop-color="#00AEEF"/>
<stop offset="1" stop-color="#00BDF2"/>
</linearGradient>
<clipPath id="clip0_514_140">
<rect width="150" height="123.179" fill="white"/>
</clipPath>
</defs>
</svg>
